<svg width="23" height="23" viewBox="0 0 23 23" fill="none" xmlns="http://www.w3.org/2000/svg">
<g clip-path="url(#clip0_10_865)">
<path d="M21.7306 23.0001C22.4316 23.0001 23 22.4317 23 21.7307V1.2694C23 0.568262 22.4316 0 21.7306 0H1.2694C0.568172 0 0 0.568262 0 1.2694V21.7307C0 22.4317 0.568172 23.0001 1.2694 23.0001H21.7306" fill="#395185"/>
<path d="M15.8697 23.0002V14.0933H18.8594L19.307 10.6222H15.8697V8.40594C15.8697 7.40095 16.1488 6.71607 17.59 6.71607L19.4281 6.71526V3.61071C19.1101 3.56839 18.019 3.47388 16.7497 3.47388C14.0995 3.47388 12.2852 5.09151 12.2852 8.06229V10.6222H9.28784V14.0933H12.2852V23.0002H15.8697Z" fill="white"/>
</g>
<defs>
<clipPath id="clip0_10_865">
<rect width="23" height="23" fill="white"/>
</clipPath>
</defs>
</svg>
