<svg width="100" height="100" viewBox="0 0 100 100" fill="none" xmlns="http://www.w3.org/2000/svg">
<path d="M68.75 11.9318V86.9317C68.75 95.3238 74.5455 99.9999 80.6819 99.9999C86.3637 99.9999 92.6137 96.0226 92.6137 86.9317V12.5C92.6137 4.80681 86.9319 0 80.6819 0C74.4318 0 68.75 5.30113 68.75 11.9318Z" fill="#F9AB00"/>
<path d="M37.5 49.9997V86.9315C37.5 95.3235 43.2955 99.9996 49.4319 99.9996C55.1137 99.9996 61.3637 96.0224 61.3637 86.9315V50.5679C61.3637 42.8747 55.6819 38.0679 49.4319 38.0679C43.1818 38.0679 37.5 43.369 37.5 49.9997Z" fill="#E37400"/>
<path d="M18.1819 99.9994C24.7717 99.9994 30.1137 94.6573 30.1137 88.0676C30.1137 81.4778 24.7717 76.1357 18.1819 76.1357C11.5921 76.1357 6.25 81.4778 6.25 88.0676C6.25 94.6573 11.5921 99.9994 18.1819 99.9994Z" fill="#E37400"/>
</svg>
