<svg width="100" height="100" viewBox="0 0 100 100" fill="none" xmlns="http://www.w3.org/2000/svg">
<g clip-path="url(#clip0_1114_2548)">
<path d="M34.0297 16.0851C34.9963 13.5676 36.3253 11.2498 38.2986 9.37166C46.1922 1.73913 59.2407 3.65725 64.597 13.2479C68.6243 20.5208 72.8932 27.6338 77.0414 34.8268C83.9683 46.7751 90.9758 58.7234 97.8223 70.7116C103.581 80.7418 97.339 93.4094 85.9014 95.1277C78.8939 96.1667 72.3294 92.9698 68.7048 86.7359C62.6236 76.2262 56.5021 65.7165 50.4208 55.2468C50.3 55.007 50.1389 54.8072 49.9778 54.6074C49.3335 54.0879 49.0516 53.3286 48.6488 52.6493C45.9505 47.9339 43.1717 43.2585 40.4734 38.5831C38.7416 35.546 36.9294 32.549 35.1976 29.512C33.627 26.7946 32.9021 23.8375 32.9826 20.7206C33.1034 19.1221 33.3048 17.5237 34.0297 16.0851Z" fill="#3C8BD9"/>
<path d="M34.0298 16.085C33.6674 17.5236 33.3452 18.9621 33.2646 20.4807C33.1438 23.8374 33.9895 26.9543 35.681 29.8715C40.1111 37.4241 44.5411 45.0166 48.9309 52.6092C49.3336 53.2885 49.6558 53.9679 50.0585 54.6073C47.6421 58.7632 45.2257 62.8792 42.7691 67.0351C39.3861 72.8294 36.0032 78.6637 32.58 84.458C32.4189 84.458 32.3786 84.3781 32.3383 84.2582C32.2981 83.9385 32.4189 83.6588 32.4994 83.3391C34.1506 77.345 32.7813 72.0302 28.6332 67.4747C26.096 64.7174 22.8742 63.1589 19.169 62.6394C14.3363 61.9601 10.0673 63.1988 6.24139 66.1959C5.55674 66.7154 5.11374 67.4747 4.30828 67.8743C4.14719 67.8743 4.06664 67.7943 4.02637 67.6745C5.95948 64.3577 7.85231 61.041 9.78542 57.7242C17.7595 43.9777 25.7336 30.2311 33.7479 16.5245C33.8284 16.3647 33.9493 16.2448 34.0298 16.085Z" fill="#FABC04"/>
<path d="M4.18751 67.7943C4.9527 67.115 5.67761 66.3957 6.48308 65.7563C16.2694 58.0838 30.9691 63.6384 33.1036 75.7865C33.6271 78.7036 33.3452 81.5009 32.4592 84.2982C32.4189 84.5379 32.3787 84.7377 32.2981 84.9775C31.9357 85.6169 31.6135 86.2962 31.2108 86.9356C27.6264 92.8098 22.3507 95.727 15.4237 95.2874C7.4899 94.728 1.24757 88.8138 0.160201 80.9814C-0.363349 77.1851 0.401839 73.6286 2.37522 70.3518C2.77795 69.6325 3.26123 68.9931 3.70423 68.2739C3.9056 68.114 3.82505 67.7943 4.18751 67.7943Z" fill="#34A852"/>
<path d="M4.18754 67.7941C4.02645 67.954 4.02645 68.2337 3.74454 68.2736C3.70427 67.9939 3.86536 67.8341 4.02645 67.6343L4.18754 67.7941Z" fill="#FABC04"/>
<path d="M32.2982 84.9777C32.1371 84.6979 32.2982 84.4981 32.4593 84.2983C32.4995 84.3383 32.5801 84.4182 32.6204 84.4582L32.2982 84.9777Z" fill="#E1C025"/>
</g>
<defs>
<clipPath id="clip0_1114_2548">
<rect width="100" height="100" fill="white"/>
</clipPath>
</defs>
</svg>
