<svg width="23" height="23" viewBox="0 0 23 23" fill="none" xmlns="http://www.w3.org/2000/svg">
<path d="M20.8438 0H2.15625C0.970313 0 0 0.970313 0 2.15625V20.8438C0 22.0297 0.970313 23 2.15625 23H20.8438C22.0297 23 23 22.0297 23 20.8438V2.15625C23 0.970313 22.0297 0 20.8438 0ZM18.6286 16.1L16.5255 16.1316C16.5255 16.1316 16.0712 16.2222 15.479 15.8125C14.6927 15.2734 13.9509 13.8676 13.3716 14.0516C12.788 14.2356 12.8053 15.4977 12.8053 15.4977C12.8053 15.4977 12.8096 15.7679 12.6744 15.9102C12.5307 16.0669 12.2432 16.0986 12.2432 16.0986H11.3045C11.3045 16.0986 9.22875 16.2251 7.40025 14.3189C5.405 12.2432 3.6455 8.12475 3.6455 8.12475C3.6455 8.12475 3.542 7.8545 3.65412 7.72513C3.77919 7.57706 4.117 7.56844 4.117 7.56844L6.36812 7.5555C6.36812 7.5555 6.57944 7.59144 6.73181 7.70356C6.85831 7.79413 6.92444 7.96806 6.92444 7.96806C6.92444 7.96806 7.28813 8.8895 7.76969 9.72038C8.70837 11.3419 9.14825 11.6969 9.46737 11.5259C9.93025 11.2743 9.79081 9.23019 9.79081 9.23019C9.79081 9.23019 9.79944 8.48844 9.55794 8.16069C9.36963 7.90481 9.01456 7.82863 8.86219 7.80994C8.73569 7.79125 8.94269 7.49944 9.21294 7.36575C9.61687 7.16738 10.3313 7.15444 11.1766 7.16306C11.8321 7.16737 12.0261 7.21194 12.282 7.27087C13.0597 7.45919 12.7937 8.18225 12.7937 9.91731C12.7937 10.4751 12.6946 11.2556 13.0942 11.5115C13.2653 11.6236 13.6864 11.5288 14.743 9.73763C15.2418 8.88806 15.6184 7.89187 15.6184 7.89187C15.6184 7.89187 15.6989 7.71219 15.8254 7.636C15.9563 7.55981 16.1316 7.58281 16.1316 7.58281L18.4992 7.56987C18.4992 7.56987 19.2093 7.48506 19.3258 7.8085C19.4465 8.14488 19.0613 8.93119 18.0953 10.2206C16.5097 12.3366 16.33 12.1382 17.6511 13.3601C18.9089 14.5288 19.1691 15.0981 19.2151 15.1699C19.7268 16.0324 18.6314 16.1 18.6314 16.1H18.6286Z" fill="#4875E8"/>
</svg>
