<svg width="16" height="8" viewBox="0 0 16 8" fill="none" xmlns="http://www.w3.org/2000/svg">
<path d="M8.27139 7.96172C8.47119 7.92467 8.83083 7.85057 8.83083 7.40596C8.83083 7.40596 8.79087 6.29443 9.35031 6.14623C9.90975 5.99802 10.629 7.2207 11.3883 7.70237C11.9477 8.03583 12.3873 7.99878 12.3873 7.99878L14.4252 7.96172C14.4252 7.96172 15.4642 7.88762 14.9847 7.10955C14.9447 7.03545 14.625 6.55379 13.4262 5.55341C12.1875 4.44188 12.3873 4.62714 13.8658 2.73753C14.7849 1.58895 15.1845 0.884986 15.0646 0.625629C14.9048 0.366272 14.2654 0.403323 14.2654 0.403323H11.9877C11.7479 0.403323 11.628 0.440374 11.5082 0.625629C11.5082 0.625629 11.1485 1.5519 10.669 2.29292C9.66999 3.88612 9.27039 3.96022 9.07059 3.84906C8.71095 3.66381 8.79087 2.95984 8.79087 2.47818C8.79087 0.810884 9.07059 0.218068 8.27139 0.069864C7.75191 -0.00423796 5.91375 -0.0783399 5.35431 0.181017C5.07459 0.329221 4.91475 0.588578 5.03463 0.625629C5.15451 0.625629 5.51415 0.66268 5.71395 0.884986C6.03363 1.36665 6.07359 3.66381 5.63403 3.88612C5.03463 4.29368 3.51615 1.58895 3.15651 0.699731C3.07659 0.477425 2.95671 0.440374 2.67699 0.366272H0.479186C0.239426 0.366272 -0.120214 0.403323 0.0396259 0.847935C1.11855 2.92279 3.35631 7.99878 7.39227 7.96172H8.27139Z" fill="#4875E8"/>
</svg>
