<svg width="100" height="100" viewBox="0 0 100 100" fill="none" xmlns="http://www.w3.org/2000/svg">
<circle cx="50" cy="50" r="50" fill="#FFDC11"/>
<path fill-rule="evenodd" clip-rule="evenodd" d="M47.4884 0.083891C31.9999 0.812618 17.5758 8.87583 8.74078 21.7444C1.06993 32.9172 -1.69412 46.6504 1.01377 60.1371C2.37185 66.9005 5.51802 73.9609 9.67902 79.5824C11.6881 82.2965 15.3997 86.4536 15.5968 86.2102C15.6323 86.1663 15.9669 85.6207 16.3406 84.9978C17.1604 83.8828 17.9662 83.1324 18.4452 82.6007C18.9241 82.0691 27.5294 73.9609 38.2458 64.218C48.9621 54.4752 57.6949 46.4688 57.6519 46.4258C57.6088 46.3828 52.1556 47.5564 45.5335 49.0339C34.2469 51.552 33.3722 51.7205 31.5596 51.7234C27.6476 51.7298 24.0784 50.2781 21.3742 47.5805C14.4101 40.6336 16.1982 29.0357 24.9303 24.5136C25.6899 24.1203 26.7672 23.6697 27.3242 23.5123C27.8813 23.355 40.2698 20.5744 54.8543 17.3333C69.4388 14.0921 81.487 11.4009 81.6282 11.3526C82.2295 11.1471 76.5813 7.3155 72.9928 5.4947C66.6346 2.26824 59.8036 0.404443 53.3811 0.143593C52.1657 0.0941781 50.9227 0.0331906 50.6189 0.00820774C50.3151 -0.0167751 48.9063 0.0172089 47.4884 0.083891ZM60.4701 83.2128C50.7309 92.0652 43.0387 99.359 42.9469 99.4506C43.314 99.6337 47.1228 100.001 50.2883 100C56.2923 99.9989 62.5367 98.8824 67.6467 96.9076L69.0219 96.3762L69.5594 94.7802C69.798 93.5761 77.9352 67.8307 78.2738 67.2554C78.3184 67.1795 78.3149 67.1176 78.2661 67.1176C78.2173 67.1176 70.2091 74.3604 60.4701 83.2128Z" fill="#1C4C7D"/>
</svg>
