<svg width="13" height="13" viewBox="0 0 13 13" fill="none" xmlns="http://www.w3.org/2000/svg">
<path d="M3.79167 8.66659C4.00715 8.66659 4.21382 8.58098 4.36619 8.42861C4.51856 8.27624 4.60417 8.06957 4.60417 7.85409C4.60681 7.82707 4.60681 7.79985 4.60417 7.77284L6.11542 6.26159H6.24H6.36458L7.23667 7.13367C7.23667 7.13367 7.23667 7.16075 7.23667 7.177C7.23667 7.39249 7.32227 7.59915 7.47464 7.75153C7.62702 7.9039 7.83368 7.9895 8.04917 7.9895C8.26465 7.9895 8.47132 7.9039 8.62369 7.75153C8.77606 7.59915 8.86167 7.39249 8.86167 7.177V7.13367L10.8333 5.14575C10.994 5.14575 11.1511 5.0981 11.2847 5.00882C11.4183 4.91954 11.5225 4.79265 11.584 4.64418C11.6455 4.49572 11.6616 4.33235 11.6302 4.17474C11.5989 4.01713 11.5215 3.87236 11.4079 3.75873C11.2942 3.6451 11.1495 3.56771 10.9918 3.53636C10.8342 3.50501 10.6709 3.5211 10.5224 3.5826C10.3739 3.6441 10.247 3.74824 10.1578 3.88185C10.0685 4.01547 10.0208 4.17255 10.0208 4.33325C10.0182 4.36027 10.0182 4.38748 10.0208 4.4145L8.06542 6.36992H7.97875L7.04167 5.41659C7.04167 5.2011 6.95606 4.99443 6.80369 4.84206C6.65132 4.68969 6.44465 4.60409 6.22917 4.60409C6.01368 4.60409 5.80702 4.68969 5.65464 4.84206C5.50227 4.99443 5.41667 5.2011 5.41667 5.41659L3.79167 7.04159C3.57618 7.04159 3.36952 7.12719 3.21714 7.27956C3.06477 7.43193 2.97917 7.6386 2.97917 7.85409C2.97917 8.06957 3.06477 8.27624 3.21714 8.42861C3.36952 8.58098 3.57618 8.66659 3.79167 8.66659ZM11.1042 10.8333H1.89583V1.62492C1.89583 1.48126 1.83877 1.34348 1.73718 1.2419C1.6356 1.14032 1.49783 1.08325 1.35417 1.08325C1.21051 1.08325 1.07273 1.14032 0.97115 1.2419C0.869568 1.34348 0.8125 1.48126 0.8125 1.62492V11.3749C0.8125 11.5186 0.869568 11.6564 0.97115 11.7579C1.07273 11.8595 1.21051 11.9166 1.35417 11.9166H11.1042C11.2478 11.9166 11.3856 11.8595 11.4872 11.7579C11.5888 11.6564 11.6458 11.5186 11.6458 11.3749C11.6458 11.2313 11.5888 11.0935 11.4872 10.9919C11.3856 10.8903 11.2478 10.8333 11.1042 10.8333Z" fill="#2F3F5E" fill-opacity="0.8"/>
</svg>
