<svg width="18" height="18" viewBox="0 0 18 18" fill="none" xmlns="http://www.w3.org/2000/svg">
    <path
        d="M8.99175 0.666748C4.39175 0.666748 0.666748 4.40008 0.666748 9.00008C0.666748 13.6001 4.39175 17.3334 8.99175 17.3334C13.6001 17.3334 17.3334 13.6001 17.3334 9.00008C17.3334 4.40008 13.6001 0.666748 8.99175 0.666748ZM9.00008 15.6667C5.31675 15.6667 2.33341 12.6834 2.33341 9.00008C2.33341 5.31675 5.31675 2.33341 9.00008 2.33341C12.6834 2.33341 15.6667 5.31675 15.6667 9.00008C15.6667 12.6834 12.6834 15.6667 9.00008 15.6667ZM8.16675 11.5001H9.83342V13.1667H8.16675V11.5001ZM8.16675 4.83342H9.83342V9.83342H8.16675V4.83342Z"
        fill="#FF1943" fill-opacity="0.6"/>
</svg>
