<svg width="17" height="17" viewBox="0 0 17 17" fill="none" xmlns="http://www.w3.org/2000/svg">
    <path
        d="M8.93537 0C4.48375 0 0.87085 3.73333 0.87085 8.33333C0.87085 12.9333 4.48375 16.6667 8.93537 16.6667C13.387 16.6667 16.9999 12.9333 16.9999 8.33333C16.9999 3.73333 13.387 0 8.93537 0ZM8.93537 15C5.37891 15 2.48375 12.0083 2.48375 8.33333C2.48375 4.65833 5.37891 1.66667 8.93537 1.66667C12.4918 1.66667 15.387 4.65833 15.387 8.33333C15.387 12.0083 12.4918 15 8.93537 15ZM12.637 4.65L7.32246 10.1417L5.23375 7.99167L4.09666 9.16667L7.32246 12.5L13.7741 5.83333L12.637 4.65Z"
        fill="#4CBF16"/>
</svg>
