<svg width="24" height="24" viewBox="12 12 20 20" fill="none" xmlns="http://www.w3.org/2000/svg">
    <path
        d="M29.4308 22.98C29.4708 22.66 29.5008 22.34 29.5008 22C29.5008 21.66 29.4708 21.34 29.4308 21.02L31.5408 19.37C31.7308 19.22 31.7808 18.95 31.6608 18.73L29.6608 15.27C29.5708 15.11 29.4008 15.02 29.2208 15.02C29.1608 15.02 29.1008 15.03 29.0508 15.05L26.5608 16.05C26.0408 15.65 25.4808 15.32 24.8708 15.07L24.4908 12.42C24.4608 12.18 24.2508 12 24.0008 12H20.0008C19.7508 12 19.5408 12.18 19.5108 12.42L19.1308 15.07C18.5208 15.32 17.9608 15.66 17.4408 16.05L14.9508 15.05C14.8908 15.03 14.8308 15.02 14.7708 15.02C14.6008 15.02 14.4308 15.11 14.3408 15.27L12.3408 18.73C12.2108 18.95 12.2708 19.22 12.4608 19.37L14.5708 21.02C14.5308 21.34 14.5008 21.67 14.5008 22C14.5008 22.33 14.5308 22.66 14.5708 22.98L12.4608 24.63C12.2708 24.78 12.2208 25.05 12.3408 25.27L14.3408 28.73C14.4308 28.89 14.6008 28.98 14.7808 28.98C14.8408 28.98 14.9008 28.97 14.9508 28.95L17.4408 27.95C17.9608 28.35 18.5208 28.68 19.1308 28.93L19.5108 31.58C19.5408 31.82 19.7508 32 20.0008 32H24.0008C24.2508 32 24.4608 31.82 24.4908 31.58L24.8708 28.93C25.4808 28.68 26.0408 28.34 26.5608 27.95L29.0508 28.95C29.1108 28.97 29.1708 28.98 29.2308 28.98C29.4008 28.98 29.5708 28.89 29.6608 28.73L31.6608 25.27C31.7808 25.05 31.7308 24.78 31.5408 24.63L29.4308 22.98ZM27.4508 21.27C27.4908 21.58 27.5008 21.79 27.5008 22C27.5008 22.21 27.4808 22.43 27.4508 22.73L27.3108 23.86L28.2008 24.56L29.2808 25.4L28.5808 26.61L27.3108 26.1L26.2708 25.68L25.3708 26.36C24.9408 26.68 24.5308 26.92 24.1208 27.09L23.0608 27.52L22.9008 28.65L22.7008 30H21.3008L21.1108 28.65L20.9508 27.52L19.8908 27.09C19.4608 26.91 19.0608 26.68 18.6608 26.38L17.7508 25.68L16.6908 26.11L15.4208 26.62L14.7208 25.41L15.8008 24.57L16.6908 23.87L16.5508 22.74C16.5208 22.43 16.5008 22.2 16.5008 22C16.5008 21.8 16.5208 21.57 16.5508 21.27L16.6908 20.14L15.8008 19.44L14.7208 18.6L15.4208 17.39L16.6908 17.9L17.7308 18.32L18.6308 17.64C19.0608 17.32 19.4708 17.08 19.8808 16.91L20.9408 16.48L21.1008 15.35L21.3008 14H22.6908L22.8808 15.35L23.0408 16.48L24.1008 16.91C24.5308 17.09 24.9308 17.32 25.3308 17.62L26.2408 18.32L27.3008 17.89L28.5708 17.38L29.2708 18.59L28.2008 19.44L27.3108 20.14L27.4508 21.27ZM22.0008 18C19.7908 18 18.0008 19.79 18.0008 22C18.0008 24.21 19.7908 26 22.0008 26C24.2108 26 26.0008 24.21 26.0008 22C26.0008 19.79 24.2108 18 22.0008 18ZM22.0008 24C20.9008 24 20.0008 23.1 20.0008 22C20.0008 20.9 20.9008 20 22.0008 20C23.1008 20 24.0008 20.9 24.0008 22C24.0008 23.1 23.1008 24 22.0008 24Z"
        fill="#828282"/>
</svg>
