<svg width="20" height="20" viewBox="0 0 20 20" fill="none" xmlns="http://www.w3.org/2000/svg">
    <path
        d="M7.17174 5.75736L5.75753 7.17157L8.58595 10L5.75753 12.8284L7.17174 14.2426L10.0002 11.4142L12.8286 14.2426L14.2428 12.8284L11.4144 10L14.2428 7.17157L12.8286 5.75736L10.0002 8.58579L7.17174 5.75736ZM2.9291 2.92893C-0.974129 6.83216 -0.974129 13.1678 2.9291 17.0711C6.83233 20.9743 13.168 20.9743 17.0712 17.0711C20.9745 13.1678 20.9745 6.83216 17.0712 2.92893C13.168 -0.974297 6.83233 -0.974297 2.9291 2.92893ZM15.657 15.6569C12.5387 18.7752 7.46165 18.7752 4.34331 15.6569C1.22497 12.5385 1.22497 7.46149 4.34331 4.34315C7.46165 1.22481 12.5387 1.22481 15.657 4.34315C18.7754 7.46149 18.7754 12.5385 15.657 15.6569Z"
        fill="#BFC3CE"/>
</svg>
