<svg width="15" height="15" viewBox="0 0 15 15" fill="none" xmlns="http://www.w3.org/2000/svg">
<path d="M11.875 1.25H3.125C2.62772 1.25 2.15081 1.44754 1.79917 1.79917C1.44754 2.15081 1.25 2.62772 1.25 3.125V3.85625C1.24991 4.11434 1.3031 4.36967 1.40625 4.60625V4.64375C1.49455 4.84436 1.61962 5.02666 1.775 5.18125L5.625 9.00625V13.125C5.62479 13.2312 5.65165 13.3357 5.70304 13.4287C5.75444 13.5216 5.82868 13.6 5.91875 13.6562C6.01821 13.7179 6.13298 13.7504 6.25 13.75C6.34784 13.7494 6.44417 13.7259 6.53125 13.6812L9.03125 12.4312C9.13432 12.3793 9.221 12.2998 9.28167 12.2017C9.34235 12.1035 9.37465 11.9904 9.375 11.875V9.00625L13.2 5.18125C13.3554 5.02666 13.4804 4.84436 13.5687 4.64375V4.60625C13.6805 4.37152 13.7422 4.11611 13.75 3.85625V3.125C13.75 2.62772 13.5525 2.15081 13.2008 1.79917C12.8492 1.44754 12.3723 1.25 11.875 1.25ZM8.30625 8.30625C8.24832 8.36465 8.2025 8.43391 8.17139 8.51006C8.14029 8.58621 8.12452 8.66775 8.125 8.75V11.4875L6.875 12.1125V8.75C6.87548 8.66775 6.85971 8.58621 6.82861 8.51006C6.7975 8.43391 6.75168 8.36465 6.69375 8.30625L3.38125 5H11.6187L8.30625 8.30625ZM12.5 3.75H2.5V3.125C2.5 2.95924 2.56585 2.80027 2.68306 2.68306C2.80027 2.56585 2.95924 2.5 3.125 2.5H11.875C12.0408 2.5 12.1997 2.56585 12.3169 2.68306C12.4342 2.80027 12.5 2.95924 12.5 3.125V3.75Z" fill="#DCE4EA"/>
</svg>
