<svg width="8" height="7" viewBox="0 0 8 7" fill="none" xmlns="http://www.w3.org/2000/svg">
<path d="M7.29418 3.27802C7.26674 3.20647 7.22558 3.14111 7.17307 3.08568L4.28947 0.171412C4.2357 0.117068 4.17186 0.0739597 4.1016 0.0445488C4.03135 0.0151378 3.95605 0 3.88 0C3.72642 0 3.57913 0.0616589 3.47053 0.171412C3.41676 0.225757 3.3741 0.290273 3.345 0.361277C3.3159 0.432281 3.30092 0.508383 3.30092 0.585238C3.30092 0.740453 3.36193 0.88931 3.47053 0.999063L5.37371 2.91665H0.996398C0.843442 2.91665 0.696751 2.97806 0.588595 3.08736C0.480439 3.19667 0.419678 3.34492 0.419678 3.4995C0.419678 3.65408 0.480439 3.80234 0.588595 3.91164C0.696751 4.02095 0.843442 4.08236 0.996398 4.08236H5.37371L3.47053 5.99994C3.41647 6.05413 3.37357 6.11859 3.34429 6.18962C3.31501 6.26064 3.29994 6.33682 3.29994 6.41377C3.29994 6.49071 3.31501 6.56689 3.34429 6.63792C3.37357 6.70895 3.41647 6.77341 3.47053 6.82759C3.52414 6.88222 3.58793 6.92558 3.65821 6.95517C3.72849 6.98477 3.80387 7 3.88 7C3.95613 7 4.03151 6.98477 4.10179 6.95517C4.17207 6.92558 4.23586 6.88222 4.28947 6.82759L7.17307 3.91333C7.22558 3.8579 7.26674 3.79253 7.29418 3.72099C7.35187 3.57908 7.35187 3.41992 7.29418 3.27802Z" fill="#6C757D"/>
</svg>
