<svg width="20" height="20" viewBox="0 0 20 20" fill="none" xmlns="http://www.w3.org/2000/svg">
    <path
        d="M15.6601 7.53L8.59012 14.6L4.35012 10.36L5.76012 8.95L8.59012 11.78L14.2501 6.12L15.6601 7.53ZM2.00012 10C2.00012 7.67 3.02012 5.58 4.62012 4.12L7.00012 6.5V0.500003H1.00012L3.20012 2.7C1.24012 4.52 0.00012207 7.11 0.00012207 10C0.00012207 15.19 3.95012 19.45 9.00012 19.95V17.93C5.06012 17.44 2.00012 14.07 2.00012 10ZM20.0001 10C20.0001 4.81 16.0501 0.550003 11.0001 0.0500031V2.07C14.9401 2.56 18.0001 5.93 18.0001 10C18.0001 12.33 16.9801 14.42 15.3801 15.88L13.0001 13.5V19.5H19.0001L16.8001 17.3C18.7601 15.48 20.0001 12.89 20.0001 10Z"
        fill="#BFC3CE"/>
</svg>
