<svg width="20" height="20" viewBox="0 0 20 20" fill="none" xmlns="http://www.w3.org/2000/svg">
    <path
        d="M2.00012 9.99999C2.00012 7.66999 3.02012 5.57999 4.62012 4.11999L7.00012 6.49999V0.499988H1.00012L3.20012 2.69999C1.24012 4.51999 0.00012207 7.10999 0.00012207 9.99999C0.00012207 15.19 3.95012 19.45 9.00012 19.95V17.93C5.06012 17.44 2.00012 14.07 2.00012 9.99999ZM20.0001 9.99999C20.0001 4.80999 16.0501 0.549988 11.0001 0.0499878V2.06999C14.9401 2.55999 18.0001 5.92999 18.0001 9.99999C18.0001 12.33 16.9801 14.42 15.3801 15.88L13.0001 13.5V19.5H19.0001L16.8001 17.3C18.7601 15.48 20.0001 12.89 20.0001 9.99999Z"
        fill="#BFC3CE"/>
</svg>
