<svg width="22" height="22" viewBox="0 0 22 22" fill="none" xmlns="http://www.w3.org/2000/svg">
    <path
        d="M14.2081 12.8333H13.4839L13.2273 12.5858C14.1256 11.5408 14.6664 10.1842 14.6664 8.70833C14.6664 5.4175 11.9989 2.75 8.70809 2.75C5.41726 2.75 2.74976 5.4175 2.74976 8.70833C2.74976 11.9992 5.41726 14.6667 8.70809 14.6667C10.1839 14.6667 11.5406 14.1258 12.5856 13.2275L12.8331 13.4842V14.2083L17.4164 18.7825L18.7823 17.4167L14.2081 12.8333ZM8.70809 12.8333C6.42559 12.8333 4.58309 10.9908 4.58309 8.70833C4.58309 6.42583 6.42559 4.58333 8.70809 4.58333C10.9906 4.58333 12.8331 6.42583 12.8331 8.70833C12.8331 10.9908 10.9906 12.8333 8.70809 12.8333Z"
        fill="#1A75FF"/>
</svg>
