<svg width="10" height="10" viewBox="0 0 10 10" fill="none" xmlns="http://www.w3.org/2000/svg">
<path d="M8.779 7.01266L7.9165 6.12933C7.73098 5.95297 7.49695 5.83612 7.24451 5.7938C6.99206 5.75148 6.73273 5.78562 6.49983 5.89183L6.12483 5.51683C6.56673 4.92637 6.76854 4.19044 6.68964 3.45717C6.61074 2.72391 6.25699 2.04775 5.6996 1.56483C5.1422 1.0819 4.42256 0.828057 3.68553 0.854402C2.9485 0.880747 2.24881 1.18532 1.72732 1.70681C1.20583 2.2283 0.901255 2.92799 0.87491 3.66502C0.848565 4.40205 1.10241 5.12169 1.58533 5.67909C2.06826 6.23648 2.74441 6.59023 3.47768 6.66914C4.21095 6.74803 4.94688 6.54622 5.53733 6.10433L5.90817 6.47516C5.78945 6.70834 5.74691 6.97289 5.78653 7.23154C5.82615 7.49018 5.94593 7.72987 6.129 7.91682L7.01233 8.80016C7.24671 9.03424 7.56442 9.16572 7.89567 9.16572C8.22692 9.16572 8.54462 9.03424 8.779 8.80016C8.89806 8.68374 8.99266 8.54472 9.05724 8.39124C9.12183 8.23776 9.15509 8.07292 9.15509 7.90641C9.15509 7.73989 9.12183 7.57506 9.05724 7.42158C8.99266 7.2681 8.89806 7.12907 8.779 7.01266ZM5.24567 5.24599C4.9541 5.53682 4.58288 5.73472 4.17889 5.81468C3.77491 5.89464 3.35629 5.85307 2.97592 5.69524C2.59554 5.5374 2.27048 5.27037 2.0418 4.92788C1.81311 4.58539 1.69106 4.18281 1.69106 3.77099C1.69106 3.35917 1.81311 2.95659 2.0418 2.6141C2.27048 2.27161 2.59554 2.00458 2.97592 1.84675C3.35629 1.68891 3.77491 1.64735 4.17889 1.7273C4.58288 1.80726 4.9541 2.00516 5.24567 2.29599C5.43968 2.48952 5.59361 2.71941 5.69864 2.97252C5.80366 3.22562 5.85772 3.49696 5.85772 3.77099C5.85772 4.04502 5.80366 4.31636 5.69864 4.56947C5.59361 4.82257 5.43968 5.05247 5.24567 5.24599ZM8.1915 8.19182C8.15277 8.23088 8.10668 8.26188 8.05591 8.28303C8.00513 8.30418 7.95067 8.31507 7.89567 8.31507C7.84066 8.31507 7.7862 8.30418 7.73543 8.28303C7.68465 8.26188 7.63857 8.23088 7.59983 8.19182L6.7165 7.30849C6.67745 7.26976 6.64645 7.22367 6.6253 7.1729C6.60414 7.12212 6.59325 7.06766 6.59325 7.01266C6.59325 6.95765 6.60414 6.90319 6.6253 6.85242C6.64645 6.80164 6.67745 6.75556 6.7165 6.71683C6.75524 6.67777 6.80132 6.64677 6.85209 6.62562C6.90287 6.60447 6.95733 6.59358 7.01233 6.59358C7.06734 6.59358 7.1218 6.60447 7.17257 6.62562C7.22335 6.64677 7.26943 6.67777 7.30817 6.71683L8.1915 7.60016C8.23055 7.63889 8.26155 7.68498 8.2827 7.73575C8.30386 7.78653 8.31475 7.84099 8.31475 7.89599C8.31475 7.951 8.30386 8.00546 8.2827 8.05623C8.26155 8.10701 8.23055 8.15309 8.1915 8.19182Z" fill="#4875E8"/>
</svg>
