<svg width="21" height="18" viewBox="0 0 21 18" fill="none" xmlns="http://www.w3.org/2000/svg">
    <path
        d="M12.0001 0C7.03012 0 3.00012 4.03 3.00012 9H0.00012207L4.00012 12.99L8.00012 9H5.00012C5.00012 5.13 8.13012 2 12.0001 2C15.8701 2 19.0001 5.13 19.0001 9C19.0001 12.87 15.8701 16 12.0001 16C10.0701 16 8.32012 15.21 7.06012 13.94L5.64012 15.36C7.27012 16.99 9.51012 18 12.0001 18C16.9701 18 21.0001 13.97 21.0001 9C21.0001 4.03 16.9701 0 12.0001 0ZM11.0001 5V10L15.2501 12.52L16.0201 11.24L12.5001 9.15V5H11.0001Z"
        fill="#BFC3CE"/>
</svg>
