<svg width="19" height="17" viewBox="0 0 19 17" fill="none" xmlns="http://www.w3.org/2000/svg">
    <path
        d="M8.00012 8C10.2101 8 12.0001 6.21 12.0001 4C12.0001 1.79 10.2101 0 8.00012 0C5.79012 0 4.00012 1.79 4.00012 4C4.00012 6.21 5.79012 8 8.00012 8ZM8.00012 2C9.10012 2 10.0001 2.9 10.0001 4C10.0001 5.1 9.10012 6 8.00012 6C6.90012 6 6.00012 5.1 6.00012 4C6.00012 2.9 6.90012 2 8.00012 2ZM7.00012 14H2.00012C2.20012 13.37 4.55012 12.33 6.93012 12.06H6.96012L7.42012 11.61L9.00012 10.06C8.61012 10.02 8.32012 10 8.00012 10C5.33012 10 0.00012207 11.34 0.00012207 14V16H9.00012L7.00012 14ZM17.6001 8.5L12.4701 13.67L10.4001 11.59L9.00012 13L12.4701 16.5L19.0001 9.91L17.6001 8.5Z"
        fill="#BFC3CE"/>
</svg>
