<?xml version="1.0" standalone="no"?>
<!DOCTYPE svg PUBLIC "-//W3C//DTD SVG 20010904//EN"
 "http://www.w3.org/TR/2001/REC-SVG-20010904/DTD/svg10.dtd">
<svg version="1.0" xmlns="http://www.w3.org/2000/svg"
 width="700.000000pt" height="700.000000pt" viewBox="0 0 700.000000 700.000000"
 preserveAspectRatio="xMidYMid meet">
<metadata>
Created by potrace 1.14, written by Peter Selinger 2001-2017
</metadata>
<g transform="translate(0.000000,700.000000) scale(0.100000,-0.100000)"
fill="#000000" stroke="none">
<path d="M1705 5767 c0 -1003 2 -1227 13 -1240 8 -9 170 -174 360 -367 191
-193 480 -487 643 -653 l296 -301 -46 -39 c-25 -21 -55 -49 -67 -61 -11 -11
-51 -48 -88 -80 -37 -33 -80 -71 -95 -85 -47 -43 -201 -183 -255 -231 -27 -25
-60 -54 -71 -65 -12 -11 -62 -56 -111 -100 -103 -93 -86 -77 -204 -185 -255
-232 -296 -272 -349 -342 -81 -108 -150 -280 -182 -453 -14 -79 -18 -324 -6
-430 33 -295 148 -613 308 -846 65 -94 174 -215 239 -262 l36 -26 38 34 c21
18 64 58 95 87 31 29 90 84 131 122 41 38 109 101 151 140 80 75 274 255 318
295 14 13 80 74 146 135 109 101 224 208 265 246 9 8 74 69 145 135 72 66 135
125 141 130 40 37 251 232 310 288 40 38 83 77 95 88 13 11 50 46 84 77 180
168 413 380 665 601 41 36 97 86 124 111 62 55 57 51 146 130 40 36 78 70 84
75 6 6 49 44 96 85 47 41 92 81 101 90 9 8 47 42 85 75 64 56 108 95 209 187
22 20 51 45 64 55 l23 19 -63 61 c-107 102 -171 162 -310 293 -73 69 -145 136
-159 150 -14 14 -91 86 -169 160 -79 74 -169 160 -201 190 -32 30 -118 111
-191 180 -73 69 -145 136 -159 150 -24 22 -425 410 -650 630 -49 47 -208 202
-356 345 -304 295 -315 306 -715 696 -742 722 -950 924 -958 927 -4 1 -7 -548
-6 -1221z"/>
</g>
</svg>
