<?xml version="1.0" encoding="UTF-8"?>
<svg width="130px" height="130px" viewBox="0 0 130 130" version="1.1" xmlns="http://www.w3.org/2000/svg">
    <g id="Page-1" stroke="none" stroke-width="1" fill="none" fill-rule="evenodd">
        <g id="Logo" transform="translate(-122.000000, -116.000000)" fill="#2E2E33">
            <g id="DC-Logo" transform="translate(40.000000, 40.000000)">
                <g id="Logo-H0" transform="translate(82.000000, 76.000000)">
                    <path
                        d="M69.4133059,100.578031 C69.197908,98.5615879 70.424546,88.6369026 70.424546,88.6369026 C70.424546,88.6369026 72.8898326,89.0487284 75.2687116,89.3107842 C77.6475906,89.5728399 81.4750478,89.7804771 81.4750478,89.7804771 C81.4750478,89.7804771 79.4112559,97.2270669 80.6097841,98.9268191 C83.3800438,102.8556 98.5217999,112.55824 101.99358,116.452281 C103.738844,118.183908 105.510769,119.863524 107.678715,121.376366 C109.210934,122.675511 114.15627,122.824749 115.456697,124.123894 C116.32628,125.062379 117.390257,127.797343 116.856418,128.292106 C116.492158,128.629703 108.99828,128.79349 107.678715,128.557157 C106.248289,128.557157 104.535387,127.181863 104.535387,127.181863 C104.535387,127.181863 103.471315,128.292106 101.99358,127.506469 C99.3893189,126.212412 99.7785176,123.542172 98.2582289,121.376366 C97.3890056,120.511401 84.6635806,112.164177 76.4635342,107.550044 C69.4286591,103.591548 69.7412921,103.64847 69.4133059,100.578031 Z M18.8127875,74.885625 C17.2881438,73.534008 11.655086,78.3434224 10.0447644,77.9966604 C8.43444273,77.6498985 10.0094472,73.6769091 8.58289932,73.9189635 C6.64845125,74.2471975 6.13244871,78.7629394 4.39494606,79.1137241 C1.59286884,80.1640729 2.68933871e-16,75.9791446 0,70.9836401 C0,65.9881357 1.78141197,60.5445702 7.84887685,57.0590477 C13.9163417,53.5735251 22.9013523,52.6855769 29.8731339,55.0184522 C36.4889044,51.4859563 45.1929706,41.2332392 64.5789577,40.7540145 C83.9649448,40.2747898 91.2232143,49.937616 95.3437744,47.6240619 C99.4643346,45.3105079 100.859084,40.0941898 99.9626061,36.1973245 C98.2454587,28.7331229 94.9147991,24.6745113 92.2491808,18.0278437 C90.5754997,13.8573523 90.4838236,8.34849339 92.5921164,4.30859487 C93.5380359,2.5142151 95.8351914,0.421138103 99.2991507,0.0351438048 C102.76311,-0.350850493 103.675266,2.55303115 106.099654,3.3451681 C108.524043,4.13730505 113.705587,4.62491714 114.110382,6.46772509 C114.515176,8.31053305 108.297622,9.75918539 106.888117,9.6082404 C103.586773,9.25547009 101.503752,11.4709495 101.682709,15.3853431 C101.895754,20.3631358 103.069018,22.1406194 107.668922,29.2262335 C112.268825,36.3118476 112.227004,48.093313 106.352076,56.313879 C104.499437,58.7154307 102.527253,60.755415 101.220009,63.501257 C100.166715,65.7009835 101.220009,61.2682024 101.220009,70.0480431 C101.220009,78.8278838 96.7830154,83.0541139 90.9848731,84.9095535 C83.1788865,87.407515 76.4380944,86.4732192 69.5441622,85.6626165 C60.0048625,84.540966 52.5403582,84.672146 48.6441923,85.6626165 C45.2678561,86.5241901 34.7005194,92.4721012 33.4000931,95.2399913 C32.7098275,96.7341771 28.9802964,112.285878 28.2968482,115.701644 C28.0173333,117.107638 28.1748344,119.906695 27.5220647,121.153263 C26.807938,122.537208 18.1122343,128.007028 15.1602836,129.129787 C13.8002047,129.648766 11.0538442,130.312122 10.727654,129.836773 C8.8036467,127.62775 8.81035043,127.116049 14.4012349,123.090209 C12.448429,119.04932 18.0826551,118.062738 19.7392926,116.069925 C21.5476181,113.902423 24.827653,90.3031184 25.9520838,87.2298037 C27.0765145,84.156489 31.4656338,83.0985013 33.2449852,80.3645313 C32.4032125,79.3947062 31.2375684,79.9124335 28.1543821,80.7740071 C25.5092161,81.51686 19.9853475,83.4808409 18.8127875,82.4988504 C17.6402274,81.51686 20.3374312,76.2372421 18.8127875,74.885625 Z"
                        id="True-Bird"/>
                </g>
            </g>
        </g>
    </g>
</svg>
