<svg width="17" height="17" viewBox="0 0 17 17" fill="none" xmlns="http://www.w3.org/2000/svg">
<g clip-path="url(#clip0_1524_2612)">
<path d="M6.23438 11.9178C6.69926 12.5102 7.12237 13.1343 7.50064 13.7854C7.82361 14.3979 7.95823 14.8131 8.19429 15.551C8.33903 15.9586 8.46986 16.0803 8.75111 16.0803C9.05764 16.0803 9.19669 15.8733 9.30413 15.5532C9.52724 14.8564 9.70231 14.3245 9.97851 13.8221C10.5205 12.8519 11.1939 11.9898 11.8556 11.1612C12.0348 10.9268 13.193 9.56063 13.7144 8.48271C13.7144 8.48271 14.3553 7.2986 14.3553 5.6449C14.3553 4.09801 13.7233 3.02515 13.7233 3.02515L11.9037 3.51244L10.7986 6.42293L10.5252 6.82427L10.4705 6.89695L10.3979 6.98796L10.2702 7.13333L10.0878 7.31567L9.10378 8.11739L6.64361 9.53788L6.23438 11.9178Z" fill="#34A853"/>
<path d="M3.69727 8.28358C4.29769 9.65508 5.45557 10.8607 6.23897 11.9187L10.3999 6.98981C10.3999 6.98981 9.81371 7.75646 8.75033 7.75646C7.56591 7.75646 6.60902 6.81063 6.60902 5.618C6.60902 4.80015 7.10105 4.23828 7.10105 4.23828L4.27652 4.99513L3.69727 8.28358Z" fill="#FBBC04"/>
<path d="M10.4453 0.26416C11.8272 0.70974 13.0101 1.64514 13.7255 3.02454L10.4001 6.98736C10.4001 6.98736 10.8921 6.41537 10.8921 5.60258C10.8921 4.38214 9.86447 3.47044 8.75432 3.47044C7.70452 3.47044 7.10156 4.23582 7.10156 4.23582V1.73931L10.4453 0.26416Z" fill="#4285F4"/>
<path d="M4.45801 2.01473C5.28344 1.02719 6.73584 0.0102539 8.7381 0.0102539C9.70953 0.0102539 10.4414 0.265277 10.4414 0.265277L7.09799 4.23757H4.72915L4.45801 2.01473Z" fill="#1A73E8"/>
<path d="M3.6979 8.28366C3.6979 8.28366 3.14551 7.20195 3.14551 5.63483C3.14551 4.15367 3.72129 2.85897 4.46013 2.01489L7.102 4.23805L3.6979 8.28366Z" fill="#EA4335"/>
</g>
<defs>
<clipPath id="clip0_1524_2612">
<rect width="16.0557" height="16.0557" fill="white" transform="translate(0.719727 0.0102539)"/>
</clipPath>
</defs>
</svg>
