<svg width="17" height="17" viewBox="0 0 17 17" fill="none" xmlns="http://www.w3.org/2000/svg">
<g clip-path="url(#clip0_1524_2599)">
<path d="M8.74649 1.36938C5.42114 1.36938 2.72559 4.06494 2.72559 7.39029C2.72559 9.05236 3.39902 10.5573 4.48821 11.6468C5.57769 12.7369 8.1444 14.3143 8.29492 15.9701C8.31749 16.2183 8.49722 16.4216 8.74649 16.4216C8.99575 16.4216 9.17549 16.2183 9.19806 15.9701C9.34858 14.3143 11.9153 12.7369 13.0048 11.6468C14.094 10.5573 14.7674 9.05236 14.7674 7.39029C14.7674 4.06494 12.0718 1.36938 8.74649 1.36938Z" fill="#FF4433"/>
<path d="M8.74794 9.49735C9.91178 9.49735 10.8552 8.55386 10.8552 7.39003C10.8552 6.22619 9.91178 5.28271 8.74794 5.28271C7.58411 5.28271 6.64062 6.22619 6.64062 7.39003C6.64062 8.55386 7.58411 9.49735 8.74794 9.49735Z" fill="white"/>
</g>
<defs>
<clipPath id="clip0_1524_2599">
<rect width="16.0557" height="16.0557" fill="white" transform="translate(0.720703 0.366211)"/>
</clipPath>
</defs>
</svg>
