<svg width="17" height="17" viewBox="0 0 17 17" fill="none" xmlns="http://www.w3.org/2000/svg">
<path d="M11.921 9.90367C9.02245 9.91841 8.55358 11.7284 8.39731 13.2588L8.32628 13.9357H7.74368L7.67264 13.2588C7.51638 11.7284 7.03329 9.9184 4.23416 9.90367C3.76529 8.90296 3.56636 8.09361 3.56636 7.18124C3.56636 4.90037 5.37087 2.76654 8.04205 2.76654C10.7133 2.76654 12.4894 4.88557 12.4894 7.19603C12.4894 8.09361 12.4041 8.90296 11.921 9.90367ZM8.01368 0C3.60903 0 0 3.7378 0 8.31429C0 12.9056 3.60903 16.6434 8.01368 16.6434C12.4609 16.6434 16.0557 12.9056 16.0557 8.31429C16.0557 3.73781 12.4609 0 8.01368 0Z" fill="#29B24A"/>
</svg>
