<?xml version="1.0" encoding="utf-8"?>
<!-- Generator: Adobe Illustrator 24.3.0, SVG Export Plug-In . SVG Version: 6.00 Build 0)  -->
<svg version="1.1" id="Слой_1" xmlns="http://www.w3.org/2000/svg" x="0px" y="0px"
	 viewBox="215 0 70 65" xml:space="preserve">
<style type="text/css">
	.st0{fill-rule:evenodd;clip-rule:evenodd;}
	.st1{fill-rule:evenodd;clip-rule:evenodd;fill:#FED104;}
</style>
<g>
	<path class="st0" d="M241.1,35.2c6.4-8.7,12.6-17.6,19-26.4c2.9,1.1,5.7,2.3,8.6,3.4c1.3,0.6,2.9,0.9,3.9,1.8
		c-1.1,5.4-2.5,10.8-3.7,16.2c3.9-3.2,7.8-6.5,11.7-9.8c1.9,4.4,2.7,9.2,2.5,13.9l0,0c-6.5,5.8-12.8,11.7-19.3,17.4
		c-3.3-1.8-6.7-3.4-10.1-5c1.3-5,2.5-10.1,3.8-15.1c-6,8.8-11.8,17.7-17.7,26.5c-4.2-1.7-8.4-3.4-12.7-5.1
		c1.3-5.1,2.5-10.2,3.8-15.2c-3.1,4.1-6.1,8.2-9.2,12.3c-2.4-3.9-4-8.3-4.5-12.9c5.2-6.2,10.4-12.5,15.5-18.8c0.3-0.3,0.6-1,1.2-0.6
		c3.3,1.6,6.5,3.2,9.7,4.9C242.8,26.8,241.9,31,241.1,35.2z"/>
	<path class="st1" d="M239.8,58.1c6-8.8,11.8-17.7,17.7-26.5c-1.2,5-2.5,10.1-3.8,15.1c3.4,1.6,6.7,3.3,10.1,5
		c6.5-5.7,12.9-11.6,19.3-17.4c-0.3,12.1-8,23.6-19,28.6c-7.1,3.3-15.4,4-23,1.9c-8-2.2-15.1-7.6-19.4-14.8
		c3.1-4.1,6.1-8.2,9.2-12.3c-1.3,5.1-2.5,10.2-3.8,15.2C231.3,54.7,235.6,56.4,239.8,58.1z"/>
	<path class="st1" d="M235.1,3.6c7.9-4.1,17.5-4.7,25.9-1.7c8.8,3,16.1,10,19.7,18.6c-3.9,3.2-7.8,6.5-11.7,9.8
		c1.2-5.4,2.6-10.8,3.7-16.2c-1-0.9-2.6-1.2-3.9-1.8c-2.9-1.1-5.7-2.3-8.6-3.4c-6.4,8.8-12.6,17.7-19,26.4c0.8-4.2,1.6-8.3,2.5-12.5
		c-3.2-1.6-6.4-3.3-9.7-4.9c-0.5-0.4-0.9,0.3-1.2,0.6c-5.2,6.3-10.3,12.6-15.5,18.8c-0.6-5.9,0-11.9,2.5-17.4
		C222.7,12.9,228.3,7,235.1,3.6z"/>
</g>
</svg>
